<svg width="28" height="28" viewBox="0 0 28 28" fill="none" xmlns="http://www.w3.org/2000/svg">
<path d="M19.6 9.8V8.4H18.2V5.6H16.8V2.8H15.4V0H12.6V2.8H11.2V5.6H9.8V8.4H8.4V9.8H0V12.6H1.4V14H2.8V15.4H4.2V16.8H5.6V22.4H4.2V25.2H2.8V28H7V26.6H9.8V25.2H11.2V23.8H16.8V25.2H18.2V26.6H21V28H25.2V25.2H23.8V22.4H22.4V16.8H23.8V15.4H25.2V14H26.6V12.6H28V9.8H19.6ZM19.6 14V15.4H18.2V18.2H19.6V21H16.8V19.6H11.2V21H8.4V18.2H9.8V15.4H8.4V14H7V12.6H11.2V11.2H12.6V8.4H15.4V11.2H16.8V12.6H21V14H19.6Z" fill="white"/>
</svg>
